@startuml
class Kino {
}

class Saal {
  -kino: Kino
}

class Genre {
}

class Film {
  -genre: Genre
}

class Sitz {
  -reihe: int
  -platz: int
}

class Vorstellung {
  -datumUhrzeit: LocalDateTime
}


class Reihe {
  -saal: Saal
  -standardPreis: BigDecimal
}

class Vorstellungspreis {
  -vorstellung: Vorstellung
  -reihe: Reihe
  -sonderpreis: BigDecimal
}

class Eintrittskarte {
  -sitz: Sitz
  -vorstellung: Vorstellung
}

class Person {
  -vorname: String
  -nachname: String
  -nationalitaet: String
  -dob: LocalDate
  -dod: LocalDate
  -bemerkung: String
}


class Rolle {
  -film: Film
  -Person: Person
}

class Engagement {
  -film: Film
  -person: Person
}

note "Rolle kann auch \nRegisseur sein und Cutter, ..." as N1

Kino "1" <-- "*" Saal: hat >
Saal "1" <-- "*" Reihe: hat >
Reihe "1" <-- "*" Sitz: hat >
Saal "1" <-- "*" Vorstellung
Vorstellung "1" <-- "*" Vorstellungspreis
Reihe "1" <-- "*" Vorstellungspreis
Sitz "1" <-- "*" Eintrittskarte
Vorstellung "1" <-- "*" Eintrittskarte
Genre "1" <-- "*" Film
(Film,Person) .. Engagement
Rolle "1" <-- "*" Engagement
Film "1" <-- "*" Vorstellung
@enduml
